<?xml version="1.0" encoding="UTF-8"?>
<svg version="1.1" id="Layer_1" xmlns="http://www.w3.org/2000/svg" xmlns:xlink="http://www.w3.org/1999/xlink" x="0px" y="0px" viewBox="0 0 175 43" style="enable-background:new 0 0 175 43;" xml:space="preserve">
<path fill="currentColor" d="M7.9,28.9h12.7v6.3H0V1.1h7.9V28.9z"/>
<path fill="currentColor" d="M31.2,10.9v24.3h-7.3V10.9H31.2z M32,4.3c0,0.6-0.1,1.1-0.4,1.6c-0.2,0.5-0.6,0.9-1,1.3  c-0.4,0.4-0.9,0.7-1.4,0.9c-0.5,0.2-1.1,0.3-1.7,0.3c-0.6,0-1.2-0.1-1.7-0.3c-0.5-0.2-1-0.5-1.4-0.9c-0.4-0.4-0.7-0.8-0.9-1.3  c-0.2-0.5-0.3-1.1-0.3-1.6c0-0.6,0.1-1.2,0.3-1.7c0.2-0.5,0.5-1,0.9-1.4c0.4-0.4,0.9-0.7,1.4-0.9C26.4,0.1,27,0,27.6,0  c0.6,0,1.2,0.1,1.7,0.3c0.5,0.2,1,0.5,1.4,0.9c0.4,0.4,0.7,0.8,1,1.4C31.9,3.1,32,3.7,32,4.3z"/>
<path fill="currentColor" d="M37.4,35.3V15.9l-1.6-0.3c-0.5-0.1-1-0.3-1.3-0.6c-0.3-0.3-0.5-0.7-0.5-1.2V11h3.4V9.6c0-1.4,0.2-2.7,0.7-3.8  c0.5-1.1,1.1-2.1,1.9-2.9c0.8-0.8,1.9-1.4,3.1-1.9c1.2-0.4,2.6-0.7,4.1-0.7c0.6,0,1.1,0,1.6,0.1c0.5,0.1,1,0.2,1.6,0.3l-0.1,3.5  c0,0.3-0.1,0.5-0.2,0.6c-0.1,0.2-0.3,0.3-0.4,0.4c-0.2,0.1-0.4,0.2-0.6,0.2c-0.2,0-0.4,0.1-0.6,0.1c-0.6,0-1.2,0.1-1.7,0.2  c-0.5,0.1-0.9,0.4-1.3,0.7c-0.3,0.3-0.6,0.7-0.8,1.3c-0.2,0.5-0.3,1.2-0.3,2V11h5.7v5h-5.5v19.3H37.4z"/>
<path fill="currentColor" d="M63.1,10.6c1.6,0,3.1,0.3,4.4,0.8c1.3,0.5,2.5,1.2,3.5,2.2c1,1,1.7,2.1,2.3,3.5c0.5,1.4,0.8,2.9,0.8,4.7  c0,0.5,0,1-0.1,1.3c0,0.3-0.1,0.6-0.3,0.8c-0.1,0.2-0.3,0.3-0.5,0.4c-0.2,0.1-0.5,0.1-0.8,0.1H58.4c0.2,2,0.9,3.5,1.9,4.4  c1,0.9,2.3,1.4,3.9,1.4c0.8,0,1.6-0.1,2.2-0.3c0.6-0.2,1.2-0.4,1.6-0.7c0.5-0.3,0.9-0.5,1.3-0.7c0.4-0.2,0.8-0.3,1.3-0.3  c0.6,0,1,0.2,1.3,0.6l2.1,2.6c-0.8,0.9-1.6,1.6-2.4,2.1c-0.9,0.5-1.8,1-2.7,1.3c-0.9,0.3-1.8,0.5-2.7,0.6c-0.9,0.1-1.8,0.2-2.6,0.2  c-1.7,0-3.3-0.3-4.8-0.8c-1.5-0.6-2.8-1.4-3.9-2.5c-1.1-1.1-2-2.5-2.7-4.1c-0.6-1.6-1-3.5-1-5.7c0-1.6,0.3-3.2,0.8-4.6  c0.6-1.5,1.4-2.7,2.4-3.8c1-1.1,2.3-2,3.8-2.6C59.6,10.9,61.3,10.6,63.1,10.6z M63.3,15.6c-1.4,0-2.5,0.4-3.3,1.2  c-0.8,0.8-1.3,1.9-1.6,3.4h9.1c0-0.6-0.1-1.1-0.2-1.7c-0.1-0.5-0.4-1-0.7-1.5c-0.3-0.4-0.8-0.8-1.3-1.1C64.7,15.7,64,15.6,63.3,15.6  z"/>
<path fill="currentColor" d="M92.4,16.3c-0.2,0.3-0.4,0.5-0.6,0.6c-0.2,0.1-0.5,0.2-0.8,0.2c-0.3,0-0.7-0.1-1-0.2c-0.3-0.2-0.7-0.3-1.1-0.5  c-0.4-0.2-0.8-0.3-1.3-0.5c-0.5-0.2-1.1-0.2-1.7-0.2c-0.9,0-1.6,0.2-2.1,0.5c-0.5,0.3-0.7,0.8-0.7,1.5c0,0.5,0.2,0.8,0.5,1.1  c0.3,0.3,0.8,0.6,1.3,0.8c0.5,0.2,1.1,0.4,1.8,0.6c0.7,0.2,1.4,0.4,2.1,0.7c0.7,0.3,1.4,0.5,2.1,0.9c0.7,0.3,1.3,0.7,1.8,1.2  c0.5,0.5,1,1.1,1.3,1.8c0.3,0.7,0.5,1.5,0.5,2.5c0,1.2-0.2,2.3-0.7,3.3c-0.4,1-1.1,1.9-2,2.6c-0.9,0.7-1.9,1.3-3.2,1.7  c-1.3,0.4-2.7,0.6-4.4,0.6c-0.8,0-1.7-0.1-2.5-0.2c-0.8-0.2-1.6-0.4-2.4-0.6c-0.8-0.3-1.5-0.6-2.1-0.9c-0.7-0.4-1.2-0.8-1.7-1.2  l1.7-2.7c0.2-0.3,0.4-0.6,0.7-0.7c0.3-0.2,0.7-0.3,1.1-0.3c0.4,0,0.8,0.1,1.1,0.3c0.3,0.2,0.7,0.4,1.1,0.6c0.4,0.2,0.8,0.4,1.4,0.6  c0.5,0.2,1.2,0.3,2,0.3c0.6,0,1-0.1,1.4-0.2c0.4-0.1,0.7-0.3,0.9-0.5c0.2-0.2,0.4-0.4,0.5-0.7c0.1-0.3,0.2-0.5,0.2-0.8  c0-0.5-0.2-0.9-0.5-1.2c-0.3-0.3-0.8-0.6-1.3-0.8c-0.5-0.2-1.1-0.4-1.8-0.6c-0.7-0.2-1.4-0.4-2.1-0.7c-0.7-0.3-1.4-0.5-2.1-0.9  c-0.7-0.4-1.3-0.8-1.8-1.3c-0.5-0.5-1-1.2-1.3-2c-0.3-0.8-0.5-1.7-0.5-2.8c0-1,0.2-2,0.6-2.9c0.4-0.9,1-1.8,1.8-2.5  c0.8-0.7,1.8-1.3,3-1.7c1.2-0.4,2.6-0.6,4.2-0.6c0.9,0,1.7,0.1,2.5,0.2c0.8,0.2,1.6,0.4,2.3,0.7c0.7,0.3,1.4,0.6,2,1  c0.6,0.4,1.1,0.8,1.6,1.2L92.4,16.3z"/>
<path fill="currentColor" d="M106.1,35.7c-1.2,0-2.2-0.2-3.1-0.5c-0.9-0.3-1.6-0.8-2.2-1.4c-0.6-0.6-1-1.4-1.4-2.3c-0.3-0.9-0.5-1.9-0.5-2.9  V16h-2.1c-0.4,0-0.7-0.1-1-0.4c-0.3-0.3-0.4-0.6-0.4-1.1v-2.8l3.9-0.8l1.4-5.9c0.2-0.8,0.7-1.1,1.6-1.1h3.8V11h5.9v5h-5.9V28  c0,0.6,0.1,1,0.4,1.4c0.3,0.4,0.7,0.5,1.2,0.5c0.3,0,0.5,0,0.7-0.1c0.2-0.1,0.3-0.1,0.5-0.2c0.1-0.1,0.3-0.1,0.4-0.2  c0.1-0.1,0.3-0.1,0.4-0.1c0.2,0,0.4,0.1,0.5,0.2c0.1,0.1,0.3,0.3,0.4,0.5l2.2,3.5c-0.9,0.7-2,1.2-3.2,1.6  C108.6,35.5,107.3,35.7,106.1,35.7z"/>
<path fill="currentColor" d="M125.6,41.6c-0.2,0.5-0.5,0.8-0.8,1.1c-0.3,0.2-0.8,0.4-1.5,0.4h-5.5l4.7-9.9l-9.7-22.2h6.4  c0.6,0,1,0.1,1.3,0.4c0.3,0.3,0.5,0.5,0.7,0.9l4,10.5c0.4,1,0.7,1.9,0.9,2.9c0.2-0.5,0.3-1,0.5-1.5c0.2-0.5,0.4-1,0.5-1.5l3.6-10.4  c0.1-0.4,0.4-0.7,0.7-0.9c0.4-0.3,0.8-0.4,1.2-0.4h5.9L125.6,41.6z"/>
<path fill="currentColor" d="M148.4,0.1v35.1h-7.3V0.1H148.4z"/>
<path fill="currentColor" d="M164.1,10.6c1.6,0,3.1,0.3,4.4,0.8c1.3,0.5,2.5,1.2,3.5,2.2c1,1,1.7,2.1,2.3,3.5c0.5,1.4,0.8,2.9,0.8,4.7  c0,0.5,0,1-0.1,1.3c0,0.3-0.1,0.6-0.3,0.8c-0.1,0.2-0.3,0.3-0.5,0.4c-0.2,0.1-0.5,0.1-0.8,0.1h-14.1c0.2,2,0.9,3.5,1.9,4.4  c1,0.9,2.3,1.4,3.9,1.4c0.8,0,1.6-0.1,2.2-0.3c0.6-0.2,1.2-0.4,1.6-0.7c0.5-0.3,0.9-0.5,1.3-0.7c0.4-0.2,0.8-0.3,1.3-0.3  c0.6,0,1,0.2,1.3,0.6l2.1,2.6c-0.8,0.9-1.6,1.6-2.4,2.1c-0.9,0.5-1.8,1-2.7,1.3c-0.9,0.3-1.8,0.5-2.7,0.6c-0.9,0.1-1.8,0.2-2.6,0.2  c-1.7,0-3.3-0.3-4.8-0.8c-1.5-0.6-2.8-1.4-3.9-2.5c-1.1-1.1-2-2.5-2.7-4.1c-0.6-1.6-1-3.5-1-5.7c0-1.6,0.3-3.2,0.8-4.6  c0.6-1.5,1.4-2.7,2.4-3.8c1-1.1,2.3-2,3.8-2.6C160.5,10.9,162.2,10.6,164.1,10.6z M164.2,15.6c-1.4,0-2.5,0.4-3.3,1.2  c-0.8,0.8-1.3,1.9-1.6,3.4h9.1c0-0.6-0.1-1.1-0.2-1.7c-0.1-0.5-0.4-1-0.7-1.5c-0.3-0.4-0.8-0.8-1.3-1.1  C165.6,15.7,165,15.6,164.2,15.6z"/>
</svg>