<?xml version="1.0" encoding="UTF-8"?>
<svg version="1.1" xmlns="http://www.w3.org/2000/svg" xmlns:xlink="http://www.w3.org/1999/xlink" x="0px" y="0px" viewBox="0 0 529.6 53.6" xml:space="preserve">
	<path fill="currentColor" d="M11.8,48.9l2.9-0.3c1.9-0.2,2.6-0.8,2.6-1.4v-43h-1.5C10.1,4.5,6.7,9.7,4.9,14.7l-0.7,2.7H2.6L4.2,2.7h34.8   l0.8,14.6h-1.5l-0.7-2.7C35.8,9.3,32.5,4.3,26.9,4.3h-1.6v43.2c0,0.6,0.4,0.8,3.1,1.1l2.4,0.3l0.2,1.2H11.6L11.8,48.9z"/>
	<path fill="currentColor" d="M41.2,49.1l2-0.3c1.7-0.3,2.4-0.7,2.4-1.2V10.7c0-0.5-0.3-0.7-2.8-1l-1.5-0.3l-0.2-1.1h16L57,9.5l-2,0.3   c-1.7,0.3-2.4,0.7-2.4,1.2v17.2h15.1V10.7c0-0.5-0.3-0.7-2.8-1l-1.6-0.3l-0.2-1.1h16l-0.2,1.1l-2,0.3c-1.7,0.3-2.3,0.7-2.3,1.2   v36.8c0,0.5,0.3,0.7,2.8,1l1.5,0.3l0.2,1.1h-16l0.2-1.1l2-0.3c1.7-0.3,2.3-0.7,2.3-1.2v-18H52.6v18.2c0,0.5,0.3,0.7,2.8,1l1.6,0.3   l0.2,1.1h-16L41.2,49.1z"/>
	<path fill="currentColor" d="M80.2,49.1l1.9-0.3c1.7-0.3,2.4-0.7,2.4-1.2V10.7c0-0.5-0.3-0.7-2.8-1l-1.5-0.3l-0.2-1.1h28.2l0.4,13.7h-1.4   l-0.5-2.2c-1.7-7.7-4.3-10.2-11.5-10.1l-3.6,0.1v18.3l2-0.1c4.3-0.2,6.2-1.3,7.1-5l0.6-2.1h1.1L101,37l-1.1-0.1l-0.2-2.1   c-0.3-3.9-1.5-5-6.5-5.3l-1.6-0.1v19l4.5,0.2c7.5-0.1,10.4-3.8,12.3-10.3l0.5-2h1.4l-1.4,13.7H80L80.2,49.1z"/>
	<path fill="currentColor" d="M122.4,48.9l2.3-0.3c2-0.3,2.7-0.8,2.7-1.4V5.4c0-0.6-0.4-0.8-3.2-1.1L122.4,4l-0.2-1.3c0,0,15.9,0,16.5,0   c11.7,0,15.9,4.1,15.9,10.5c0,5.6-4,9.4-11.1,10.8v0.2c8.1,0.8,12.9,5.7,12.9,12.6c0,8-5.5,13.3-17.2,13.3c-0.5,0-17.1,0-17.1,0   L122.4,48.9z M137.4,24c5.5,0,9-3.7,9-9.9c0-6.5-3.4-9.8-9.2-9.8c0.1,0-1.8,0-1.8,0V24H137.4z M139.4,48.5c5-0.3,8.7-5,8.7-11.3   c0-7.3-4.6-11.8-10.4-11.8c-0.7,0-2,0-2.3,0.2v21.9l3.3,1.1C138.6,48.7,139.6,48.5,139.4,48.5z"/>
	<path fill="currentColor" d="M160.8,36.8c0,0,0-26.3,0-26.1c0-0.5-0.3-0.7-2.7-0.9l-1.8-0.3l-0.2-1.1h16.5l-0.2,1.1l-2.3,0.3   c-1.7,0.2-2.3,0.6-2.3,1.1v23.9c0,8.7,3.2,12.9,9.4,12.9c6.2,0,9.5-4.4,9.5-13.7l-0.1-18.5c0-4.4-0.9-5.5-4-5.8L181,9.5l-0.2-1.1   h12.2l-0.2,1.1l-1.5,0.3c-2.5,0.3-3.4,1.5-3.4,6.1l-0.1,18.6c-0.1,10.6-4.1,16.8-13.1,16.8C165.4,51.3,160.8,46.8,160.8,36.8z"/>
	<path fill="currentColor" d="M192.2,48.8l-0.6-11.3h1.3l2.3,6.6c1.9,3.7,4.6,5.5,8.1,5.5c4.5-0.1,7.1-3.4,7.1-8.1c0-5.5-3.6-7.5-8.3-9.5   c-5.3-2.3-9.6-5.1-9.6-12.1c0-6.7,4.5-12.3,11.6-12.3c3,0,5.5,0.7,7.5,1.4l2.4-0.9l0.2,12.3h-1.2l-3.9-9.6c-1.3-1-2.9-1.7-5.1-1.7   c-3.7,0-6.2,2.9-6.2,6.6c0,4.8,3.5,6.6,7.8,8.5c5.9,2.5,10.2,5.5,10.2,13.2c0,7.1-5,13.7-12.8,13.7   C198.7,51.1,195.2,50.1,192.2,48.8z"/>
	<path fill="currentColor" d="M215.8,49.1l2.2-0.3c1.7-0.2,2.4-0.7,2.4-1.2V10.7c0-0.5-0.3-0.7-2.8-1l-1.8-0.3l-0.2-1.1h16.5L232,9.5   l-2.2,0.3c-1.8,0.2-2.4,0.7-2.4,1.2v36.8c0,0.5,0.4,0.7,2.8,1l1.8,0.3l0.2,1.1h-16.4L215.8,49.1z"/>
	<path fill="currentColor" d="M240.9,15.3h-0.2l0,27.7c0,4.4,0.9,5.4,4,5.7l1.6,0.3l0.2,1.1h-12.2l0.2-1.1l1.5-0.3c2.6-0.3,3.4-1.5,3.4-6.1   l0.2-28.2c-1.1-2.3-2.6-4.1-4.7-4.6l-1.1-0.4l-0.2-1.1h12.1l18.8,29.2h0.2l0-22c0-4.4-0.9-5.5-4-5.8L259,9.5l-0.2-1.1H271l-0.2,1.1   l-1.5,0.3c-2.5,0.3-3.4,1.5-3.4,6.1l-0.2,34.7h-1.9L240.9,15.3z"/>
	<path fill="currentColor" d="M272.4,49.1l2-0.3c1.7-0.3,2.4-0.7,2.4-1.2V10.7c0-0.5-0.3-0.7-2.8-1l-1.5-0.3l-0.2-1.1h28.2l0.4,13.7h-1.4   l-0.5-2.2c-1.7-7.7-4.3-10.2-11.5-10.1l-3.6,0.1v18.3l2-0.1c4.3-0.2,6.2-1.3,7.1-5l0.6-2.1h1.1l-1.4,16l-1.1-0.1l-0.2-2.1   c-0.3-3.9-1.5-5-6.5-5.3l-1.6-0.1v19l4.5,0.2c7.5-0.1,10.4-3.8,12.3-10.3l0.5-2h1.4l-1.4,13.7h-28.9L272.4,49.1z"/>
	<path fill="currentColor" d="M304.6,48.8L304,37.4h1.3l2.3,6.6c2,3.7,4.6,5.5,8.1,5.5c4.5-0.1,7.1-3.4,7.1-8.1c0-5.5-3.6-7.5-8.3-9.5   c-5.3-2.3-9.6-5.1-9.6-12.1c0-6.7,4.5-12.3,11.6-12.3c3,0,5.5,0.7,7.5,1.4l2.4-0.9l0.2,12.3h-1.2l-3.9-9.6c-1.3-1-2.9-1.7-5.1-1.7   c-3.7,0-6.2,2.9-6.2,6.6c0,4.8,3.5,6.6,7.8,8.5c5.9,2.5,10.2,5.5,10.2,13.2c0,7.1-5,13.7-12.8,13.7   C311.1,51.1,307.5,50.1,304.6,48.8z"/>
	<path fill="currentColor" d="M330.8,48.8l-0.6-11.3h1.3l2.3,6.6c2,3.7,4.6,5.5,8.1,5.5c4.5-0.1,7.1-3.4,7.1-8.1c0-5.5-3.6-7.5-8.3-9.5   c-5.3-2.3-9.6-5.1-9.6-12.1c0-6.7,4.5-12.3,11.6-12.3c3,0,5.5,0.7,7.5,1.4l2.4-0.9l0.2,12.3h-1.2l-3.9-9.6c-1.3-1-2.9-1.7-5.1-1.7   c-3.7,0-6.2,2.9-6.2,6.6c0,4.8,3.5,6.6,7.8,8.5c5.9,2.5,10.2,5.5,10.2,13.2c0,7.1-5,13.7-12.8,13.7   C337.3,51.1,333.8,50.1,330.8,48.8z"/>
	<path fill="currentColor" d="M378.4,48.9l2.9-0.3c1.9-0.2,2.6-0.8,2.6-1.4v-43h-1.5c-5.8,0.3-9.2,5.5-10.9,10.5l-0.7,2.7h-1.7l1.6-14.7   h34.8l0.8,14.6h-1.5l-0.7-2.7c-1.8-5.5-5.1-10.4-10.7-10.5h-1.6v43.2c0,0.6,0.4,0.8,3.1,1.1l2.4,0.3l0.2,1.2h-19.4L378.4,48.9z"/>
	<path fill="currentColor" d="M408.2,49.1l2.2-0.3c1.7-0.2,2.4-0.7,2.4-1.2V10.7c0-0.5-0.3-0.7-2.8-1l-1.8-0.3l-0.2-1.1h16.5l-0.2,1.1   l-2.2,0.3c-1.8,0.2-2.4,0.7-2.4,1.2v36.8c0,0.5,0.4,0.7,2.8,1l1.8,0.3l0.2,1.1h-16.4L408.2,49.1z"/>
	<path fill="currentColor" d="M425.5,49.1l1.6-0.2c2.9-0.3,3.5-1.4,3.6-6l0.7-30.4c-0.7-1.6-1.8-2.4-3.3-2.7l-2-0.3L426,8.4h13l8.7,30h0.2   l8.8-30h13l-0.2,1.1l-2.9,0.3c-1.5,0.1-2.2,0.8-2.2,1.4l0.6,33.1c0,3.6,0.4,4.1,2.6,4.4l2,0.3l0.2,1.1h-16.6l0.2-1.1l2.6-0.3   c1.5-0.2,2-1.1,1.9-4.5l-0.6-32.4H457l-11.4,37.9h-1.8l-10.7-36.4c-0.1-0.3-0.5-0.7-0.5-0.8L432,43.3c-0.2,4.3,0.5,5.3,3.8,5.6   l1.6,0.2l0.2,1.1h-12.2L425.5,49.1z"/>
	<path fill="currentColor" d="M471.7,49.1l2-0.3c1.7-0.3,2.4-0.7,2.4-1.2V10.7c0-0.5-0.3-0.7-2.8-1l-1.5-0.3l-0.2-1.1h28.2l0.4,13.7h-1.4   l-0.5-2.2c-1.7-7.7-4.3-10.2-11.5-10.1l-3.6,0.1v18.3l2-0.1c4.3-0.2,6.2-1.3,7.1-5l0.6-2.1h1.1l-1.3,16l-1.1-0.1l-0.2-2.1   c-0.3-3.9-1.5-5-6.5-5.3l-1.6-0.1v19l4.5,0.2c7.5-0.1,10.4-3.8,12.3-10.3l0.5-2h1.4l-1.4,13.7h-28.9L471.7,49.1z"/>
	<path fill="currentColor" d="M503.9,48.8l-0.6-11.3h1.3l2.3,6.6c2,3.7,4.6,5.5,8.1,5.5c4.5-0.1,7.1-3.4,7.1-8.1c0-5.5-3.6-7.5-8.3-9.5   c-5.3-2.3-9.6-5.1-9.6-12.1c0-6.7,4.5-12.3,11.6-12.3c3,0,5.5,0.7,7.5,1.4l2.4-0.9l0.2,12.3h-1.2l-3.9-9.6c-1.3-1-2.9-1.7-5.1-1.7   c-3.7,0-6.2,2.9-6.2,6.6c0,4.8,3.5,6.6,7.8,8.5c5.9,2.5,10.2,5.5,10.2,13.2c0,7.1-5,13.7-12.8,13.7   C510.4,51.1,506.9,50.1,503.9,48.8z"/>
</svg>